<svg width="500" height="66" viewBox="0 0 500 66" fill="none" xmlns="http://www.w3.org/2000/svg">
<path d="M20.0873 7.40143C3.82241 16.8421 4.75604 32.2193 5.31605 37.9089C26.324 13.0153 57.7474 14.2225 57.7474 14.2225C57.7474 14.2225 13.2038 29.5069 0.121082 60.1565C-0.912124 62.576 4.96881 65.7226 6.31095 62.8621C10.317 54.3383 15.8992 47.9455 15.8992 47.9455C24.135 51.0112 38.382 54.6039 48.48 47.496C61.893 38.0536 60.5219 17.1222 79.6694 6.93063C84.1418 4.5511 42.1378 -5.39868 20.0873 7.40143Z" fill="#00B87B"/>
<path d="M133.743 51H139.551V37.824C139.551 36.32 139.823 34.984 140.367 33.816C140.927 32.648 141.799 31.744 142.983 31.104C143.783 30.64 144.679 30.368 145.671 30.288C146.663 30.192 147.551 30.256 148.335 30.48V25.08C147.167 24.904 145.967 24.928 144.735 25.152C143.503 25.36 142.407 25.792 141.447 26.448C140.903 26.784 140.415 27.192 139.983 27.672C139.551 28.136 139.175 28.656 138.855 29.232V25.08H133.743V51ZM164.23 51.72C166.726 51.72 169.006 51.08 171.07 49.8C173.15 48.504 174.686 46.68 175.678 44.328L169.966 42.6C168.814 45.064 166.79 46.296 163.894 46.296C161.926 46.296 160.374 45.728 159.238 44.592C158.102 43.44 157.422 41.792 157.198 39.648H175.966C176.19 36.528 175.846 33.824 174.934 31.536C174.022 29.248 172.622 27.48 170.734 26.232C168.862 24.984 166.582 24.36 163.894 24.36C161.35 24.36 159.11 24.936 157.174 26.088C155.238 27.224 153.726 28.84 152.638 30.936C151.55 33.032 151.006 35.496 151.006 38.328C151.006 40.952 151.558 43.272 152.662 45.288C153.782 47.304 155.334 48.88 157.318 50.016C159.302 51.152 161.606 51.72 164.23 51.72ZM164.134 29.424C165.926 29.424 167.302 29.896 168.262 30.84C169.238 31.768 169.854 33.248 170.11 35.28H157.342C158.03 31.376 160.294 29.424 164.134 29.424ZM188.1 51.72C190.164 51.72 191.916 51.384 193.356 50.712C194.812 50.024 196.092 48.96 197.196 47.52V51H202.26V35.088C202.26 33.968 202.212 32.936 202.116 31.992C202.02 31.032 201.74 30.096 201.276 29.184C200.428 27.472 199.124 26.24 197.364 25.488C195.62 24.736 193.596 24.36 191.292 24.36C188.252 24.36 185.828 25.024 184.02 26.352C182.212 27.68 180.988 29.44 180.348 31.632L185.628 33.288C186.06 31.96 186.82 31.024 187.908 30.48C188.996 29.936 190.124 29.664 191.292 29.664C193.052 29.664 194.348 30.024 195.18 30.744C196.012 31.448 196.484 32.544 196.596 34.032C194.324 34.368 192.212 34.696 190.26 35.016C188.324 35.32 186.676 35.696 185.316 36.144C183.268 36.848 181.772 37.848 180.828 39.144C179.884 40.424 179.412 42.008 179.412 43.896C179.412 45.32 179.74 46.624 180.396 47.808C181.068 48.992 182.052 49.944 183.348 50.664C184.644 51.368 186.228 51.72 188.1 51.72ZM189.252 47.112C187.892 47.112 186.852 46.8 186.132 46.176C185.428 45.552 185.076 44.768 185.076 43.824C185.076 42.976 185.348 42.288 185.892 41.76C186.452 41.232 187.228 40.784 188.22 40.416C189.132 40.112 190.228 39.848 191.508 39.624C192.788 39.384 194.46 39.104 196.524 38.784C196.508 39.392 196.468 40.072 196.404 40.824C196.34 41.56 196.188 42.224 195.948 42.816C195.756 43.408 195.38 44.04 194.82 44.712C194.276 45.384 193.54 45.952 192.612 46.416C191.684 46.88 190.564 47.112 189.252 47.112ZM219.764 51.72C222.66 51.72 225.108 51.016 227.108 49.608C229.108 48.184 230.508 46.152 231.308 43.512L225.404 42.192C224.956 43.52 224.284 44.536 223.388 45.24C222.508 45.944 221.3 46.296 219.764 46.296C217.588 46.296 215.948 45.536 214.844 44.016C213.756 42.496 213.204 40.504 213.188 38.04C213.204 35.656 213.732 33.688 214.772 32.136C215.828 30.568 217.492 29.784 219.764 29.784C221.092 29.784 222.276 30.176 223.316 30.96C224.356 31.728 225.1 32.808 225.548 34.2L231.308 32.64C230.7 30.08 229.372 28.064 227.324 26.592C225.276 25.104 222.78 24.36 219.836 24.36C217.212 24.36 214.948 24.952 213.044 26.136C211.14 27.304 209.668 28.92 208.628 30.984C207.604 33.032 207.084 35.384 207.068 38.04C207.084 40.648 207.588 42.984 208.58 45.048C209.588 47.112 211.036 48.744 212.924 49.944C214.812 51.128 217.092 51.72 219.764 51.72ZM251.31 51V46.152C249.694 46.392 248.254 46.456 246.99 46.344C245.726 46.232 244.806 45.696 244.23 44.736C243.926 44.24 243.758 43.6 243.726 42.816C243.71 42.016 243.702 41.104 243.702 40.08V29.616H251.31V25.08H243.702V17.88H237.942V25.08H233.238V29.616H237.942V40.416C237.942 41.904 237.958 43.232 237.99 44.4C238.022 45.552 238.334 46.688 238.926 47.808C239.598 49.04 240.582 49.944 241.878 50.52C243.174 51.08 244.638 51.376 246.27 51.408C247.918 51.456 249.598 51.32 251.31 51ZM256.403 38.136H270.803V33.6H256.403V38.136ZM277.52 51H283.304V15.72H277.52V51ZM302.277 51.72C304.773 51.72 307.053 51.08 309.117 49.8C311.197 48.504 312.733 46.68 313.725 44.328L308.013 42.6C306.861 45.064 304.837 46.296 301.941 46.296C299.973 46.296 298.421 45.728 297.285 44.592C296.149 43.44 295.469 41.792 295.245 39.648H314.013C314.237 36.528 313.893 33.824 312.981 31.536C312.069 29.248 310.669 27.48 308.781 26.232C306.909 24.984 304.629 24.36 301.941 24.36C299.397 24.36 297.157 24.936 295.221 26.088C293.285 27.224 291.773 28.84 290.685 30.936C289.597 33.032 289.053 35.496 289.053 38.328C289.053 40.952 289.605 43.272 290.709 45.288C291.829 47.304 293.381 48.88 295.365 50.016C297.349 51.152 299.653 51.72 302.277 51.72ZM302.181 29.424C303.973 29.424 305.349 29.896 306.309 30.84C307.285 31.768 307.901 33.248 308.157 35.28H295.389C296.077 31.376 298.341 29.424 302.181 29.424ZM326.147 51.72C328.211 51.72 329.963 51.384 331.403 50.712C332.859 50.024 334.139 48.96 335.243 47.52V51H340.307V35.088C340.307 33.968 340.259 32.936 340.163 31.992C340.067 31.032 339.787 30.096 339.323 29.184C338.475 27.472 337.171 26.24 335.411 25.488C333.667 24.736 331.643 24.36 329.339 24.36C326.299 24.36 323.875 25.024 322.067 26.352C320.259 27.68 319.035 29.44 318.395 31.632L323.675 33.288C324.107 31.96 324.867 31.024 325.955 30.48C327.043 29.936 328.171 29.664 329.339 29.664C331.099 29.664 332.395 30.024 333.227 30.744C334.059 31.448 334.531 32.544 334.643 34.032C332.371 34.368 330.259 34.696 328.307 35.016C326.371 35.32 324.723 35.696 323.363 36.144C321.315 36.848 319.819 37.848 318.875 39.144C317.931 40.424 317.459 42.008 317.459 43.896C317.459 45.32 317.787 46.624 318.443 47.808C319.115 48.992 320.099 49.944 321.395 50.664C322.691 51.368 324.275 51.72 326.147 51.72ZM327.299 47.112C325.939 47.112 324.899 46.8 324.179 46.176C323.475 45.552 323.123 44.768 323.123 43.824C323.123 42.976 323.395 42.288 323.939 41.76C324.499 41.232 325.275 40.784 326.267 40.416C327.179 40.112 328.275 39.848 329.555 39.624C330.835 39.384 332.507 39.104 334.571 38.784C334.555 39.392 334.515 40.072 334.451 40.824C334.387 41.56 334.235 42.224 333.995 42.816C333.803 43.408 333.427 44.04 332.867 44.712C332.323 45.384 331.587 45.952 330.659 46.416C329.731 46.88 328.611 47.112 327.299 47.112ZM348.811 51H354.595V29.616H360.859V25.08H354.595V23.424C354.595 22.528 354.859 21.808 355.387 21.264C355.931 20.704 356.755 20.424 357.859 20.424H360.859V15.72H357.619C356.995 15.72 356.267 15.744 355.435 15.792C354.603 15.824 353.755 16 352.891 16.32C352.043 16.624 351.251 17.184 350.515 18C349.635 18.96 349.131 20.064 349.003 21.312C348.875 22.56 348.811 23.68 348.811 24.672V25.08H344.635V29.616H348.811V51ZM364.216 38.136H378.616V33.6H364.216V38.136ZM384.804 62.52H390.636V49.68C391.516 50.32 392.508 50.816 393.612 51.168C394.732 51.536 395.964 51.72 397.308 51.72C399.708 51.72 401.788 51.12 403.548 49.92C405.324 48.72 406.7 47.088 407.676 45.024C408.652 42.96 409.14 40.632 409.14 38.04C409.14 35.416 408.644 33.072 407.652 31.008C406.676 28.944 405.284 27.32 403.476 26.136C401.668 24.952 399.54 24.36 397.092 24.36C395.62 24.36 394.284 24.584 393.084 25.032C391.884 25.48 390.828 26.12 389.916 26.952V25.08H384.804V62.52ZM396.42 46.536C394.1 46.536 392.436 45.752 391.428 44.184C390.42 42.6 389.916 40.552 389.916 38.04C389.916 35.512 390.412 33.464 391.404 31.896C392.412 30.328 394.02 29.544 396.228 29.544C397.78 29.544 399.052 29.928 400.044 30.696C401.052 31.448 401.796 32.472 402.276 33.768C402.772 35.048 403.02 36.472 403.02 38.04C403.02 39.624 402.78 41.056 402.3 42.336C401.836 43.616 401.116 44.64 400.14 45.408C399.164 46.16 397.924 46.536 396.42 46.536ZM425.878 51.72C428.47 51.72 430.734 51.144 432.67 49.992C434.606 48.824 436.11 47.216 437.182 45.168C438.27 43.104 438.814 40.728 438.814 38.04C438.814 35.368 438.278 33.008 437.206 30.96C436.134 28.896 434.63 27.28 432.694 26.112C430.758 24.944 428.486 24.36 425.878 24.36C423.334 24.36 421.094 24.936 419.158 26.088C417.222 27.24 415.71 28.84 414.622 30.888C413.534 32.936 412.99 35.32 412.99 38.04C412.99 40.712 413.518 43.08 414.574 45.144C415.646 47.192 417.15 48.8 419.086 49.968C421.022 51.136 423.286 51.72 425.878 51.72ZM425.878 46.296C423.654 46.296 421.966 45.552 420.814 44.064C419.678 42.56 419.11 40.552 419.11 38.04C419.11 35.592 419.654 33.608 420.742 32.088C421.846 30.552 423.558 29.784 425.878 29.784C428.15 29.784 429.854 30.536 430.99 32.04C432.126 33.528 432.694 35.528 432.694 38.04C432.694 40.472 432.126 42.456 430.99 43.992C429.87 45.528 428.166 46.296 425.878 46.296ZM444.582 51H450.366V15.72H444.582V51ZM458.035 51H463.819V15.72H458.035V51ZM481.016 51.72C484.36 51.72 486.976 50.976 488.864 49.488C490.768 48 491.72 45.952 491.72 43.344C491.72 41.328 491.08 39.744 489.8 38.592C488.536 37.44 486.352 36.464 483.248 35.664C481.232 35.152 479.712 34.72 478.688 34.368C477.68 34.016 477.008 33.664 476.672 33.312C476.336 32.96 476.168 32.536 476.168 32.04C476.168 31.176 476.584 30.504 477.416 30.024C478.248 29.528 479.344 29.312 480.704 29.376C482.112 29.456 483.24 29.816 484.088 30.456C484.952 31.096 485.464 31.968 485.624 33.072L491.528 32.016C491.208 29.68 490.064 27.824 488.096 26.448C486.128 25.056 483.632 24.36 480.608 24.36C477.52 24.36 475.048 25.08 473.192 26.52C471.336 27.96 470.408 29.896 470.408 32.328C470.408 34.264 471.056 35.792 472.352 36.912C473.664 38.032 475.944 39.016 479.192 39.864C481.144 40.376 482.584 40.808 483.512 41.16C484.456 41.496 485.072 41.84 485.36 42.192C485.648 42.544 485.792 43.016 485.792 43.608C485.792 44.568 485.408 45.328 484.64 45.888C483.872 46.432 482.8 46.704 481.424 46.704C479.84 46.704 478.52 46.336 477.464 45.6C476.424 44.864 475.76 43.856 475.472 42.576L469.568 43.488C470 46.096 471.216 48.12 473.216 49.56C475.216 51 477.816 51.72 481.016 51.72Z" fill="#00B87B"/>
</svg>
